<svg version="1.0" xmlns="http://www.w3.org/2000/svg" viewBox="0 0 512 512"><path d="M239.3 10.2c-1.2 1.3-2.8 4.5-3.7 7.3-3.6 10.9-3.3 10.5-9.2 10.5-4.4 0-5.8.5-7.9 2.5-3.7 3.8-2.8 10.6 1.7 12.5 1.6.6 1.8.9.6.9-.9.1-1.8.4-2 .8-.4 1-15.8 14.3-33.3 28.7-15.2 12.6-13.6 11.3-25 20.1-4.9 3.9-9.7 7.5-10.5 8.2-7.1 5.8-34.9 25.6-48 34.3-3.6 2.3-8.4 5.6-10.7 7.1-2.3 1.6-4.6 2.9-5.2 2.9-.6 0-1.1.4-1.1.8 0 .5-1.5 1.6-3.3 2.5-1.7.9-5 2.8-7.2 4.2-2.2 1.3-4.9 2.9-6 3.5-1.1.6-3.3 1.8-5 2.8-10 6.1-31.6 17.2-33.4 17.2-.6 0-2.6-1-4.2-2.3-6.4-4.6-15.8-1.8-17.4 5.2-.7 3.1 2.4 19.1 8.2 42.8.3 1.1 1.8 3.6 3.3 5.5l2.8 3.3 34.6.3 34.6.3V274c0 27.3-.3 42-1 42-.5 0-1.3.1-1.7.2-7.1 1.5-9.5 2.2-13.1 4l-4.3 2-4.2-3.9c-19.5-18-36.9-11.4-46.6 17.7-2.9 8.7-6.5 15.8-10.1 20-2.8 3.2-2.9 3.6-1.3 4.8 2.8 2 9.5 3.4 14.1 2.9 8.6-.9 15.6-8.4 18.9-20.2 2.8-9.9 9.1-13.7 16.4-9.9 2.2 1.1 2.8 2 2.4 3.4-1 3.1-1.5 6.2-2 12-1.4 16.6-3 25.8-5.5 31.2-2.7 5.8-2.7 14.1 0 16.8 3.8 3.8 11.5 3.9 16.8.1 1.6-1.1 6.6-7.2 11.3-13.5 4.6-6.3 8.7-11.5 9.2-11.6.4 0 .7 11.7.7 26v26H70.5c-24.2 0-26.3.4-32.8 6.8-3.9 3.8-4.8 6.3-14.7 38.9-1.8 6-3.6 10.3-4.3 10.3-2.4 0-6.3 2.3-8.2 4.9-1.3 1.7-2 4.2-2 7.3 0 4 .5 5.3 3.3 8l3.2 3.3h240.8c238.5 0 240.7 0 243.3-2 7.7-5.8 5.1-18.4-4.3-21.1-3-.9-3.2-1.4-8.9-20.7-6.4-21.8-7.9-25.4-11.7-29.3-5.7-5.6-6.9-5.9-31.4-6.2l-22.8-.3V368h7.3c5.1 0 8 .5 10.1 1.8 1.6.9 7 7.1 12 13.6 5 6.6 10.3 12.8 11.8 13.9 1.4 1.1 4.9 2.2 7.7 2.5 4.6.4 5.3.2 8.2-2.7 3-3 3.1-3.6 2.6-8.4-.3-2.9-1.3-7-2.3-9.2-1-2.2-1.8-4.5-2-5-.1-.6-.9-3.7-1.7-7-.9-3.3-2-8.7-2.6-12-.6-3.3-1.3-7.4-1.7-9-.9-4.8-1.7-25.1-1-28 .9-3.5 2.7-3.2 9.9 1.7 7.1 4.9 12.4 5.6 17 2.2 5-3.6 5.9-12.3 1.7-16.9-1-1.1-3.9-5.4-6.5-9.5l-4.6-7.5 4.3-.6c2.4-.4 6.2-1.2 8.6-1.8l4.3-1.2-4.3-4.3c-2.4-2.4-5.4-5.9-6.8-7.9-4.3-6-8.5-8.2-15.4-8.1-3.6 0-7.4.8-9.4 1.8-2.8 1.4-3.3 1.5-3.8.2-.8-2-5.3-2.9-7.1-1.5-.8.7-2 2.7-2.8 4.6-1 2.4-2 3.3-3.8 3.3-3.4 0-15.5 6.3-19.8 10.3-2 1.9-5.1 5.3-6.8 7.7l-3.1 4.3V232H488.3l3.2-3.5c3.5-3.6 5.4-10.2 10.4-35 2.5-12.1 2.4-13.7-.9-17.7-3.7-4.4-9.1-4.8-15-1.1l-4.4 2.9-8.6-4.4c-23-11.9-62.1-35.3-69.7-41.7-.6-.6-4.1-3-7.8-5.5-7.2-4.9-25.9-18.4-31.4-22.7-12.5-9.7-36.7-28.8-37.1-29.3-.3-.3-4.8-4.1-10-8.5s-10.4-8.8-11.5-9.8c-1.1-1-4.7-4.1-8.1-6.9l-6-5.1 2.1-2.2c2.7-3 3-7.6.7-10.5-1.4-1.8-3.3-2.4-8.1-2.9l-6.3-.6-2.9-8.5c-1.6-4.7-3.6-9.1-4.6-9.8-1.2-.8-6.2-1.2-16.3-1.2-13.9 0-14.8.1-16.7 2.2zM224 328v96H116v-56h6.5c10.3 0 12.2 1.3 22.2 14.8s13.3 16.3 20.1 17c10 .9 13.8-7.6 8.9-19.4-2.1-5-3.9-11-3.8-12.9 0-.2-.5-1.9-1-3.7-.5-1.8-1.2-4.9-1.5-6.8-.3-1.9-1.2-6.6-1.9-10.4-1.4-7.6-2-26.1-.9-28.9 1-2.6 2.8-2.1 10.2 2.7 5.4 3.6 7.4 4.4 10.4 4.1 6.7-.6 11.2-5.8 10.5-12-.4-3.1-2.4-7.6-3.8-8.5-.4-.3-2.8-3.9-5.3-8l-4.7-7.5 4.3-.6c2.4-.4 6.3-1.2 8.7-1.9l4.5-1.2-3-2.6c-1.6-1.5-4.5-4.7-6.4-7.2-4.8-6.3-7.9-8.9-12.2-10.1-4.1-1.3-11.6-.5-14.3 1.5-1.5 1.1-2.4 1-5.5-.8-4.4-2.4-6.2-1.5-8.5 4.1-1 2.4-2 3.3-3.7 3.3-4.5 0-16.2 6.6-22 12.2-1 1-3.1 3.6-4.8 5.9l-3 4.2V232h108v96zm172-54c0 27.3-.3 42-1 42-.5 0-1.2 0-1.5.1-6.2 1.3-9.4 2.3-13.1 4l-4.4 2.1-4.3-3.9c-6.3-5.8-12.9-9.4-18.6-10-4.2-.4-6-.1-10.2 2.2-8.2 4.3-12.4 10.3-17.9 25.9-3.4 9.6-5.8 14.3-10.2 19.8l-2.9 3.7 3.1 1.6c8 4.1 17.8 2.7 23.9-3.5 3.5-3.5 9.1-14.8 9.1-18.3 0-.7 1.4-2.8 3.1-4.5 3.5-3.6 7.2-4.1 11.9-1.7 3.3 1.7 3.5 2.2 2 6-.5 1.4-1.2 5.3-1.5 8.8-.8 9.6-1.5 16-1.9 18.2-.2 1.1-.6 3.7-1 5.7s-1.6 5.7-2.6 8.1c-2.4 5.3-2.8 12.4-1 15.4 4.2 6.6 15.8 5.3 21.8-2.4 1.5-1.9 3.4-4.3 4.2-5.3.8-1 3.8-5 6.5-8.9 2.8-3.9 5.3-7 5.8-7.1.4 0 .7 11.7.7 26v26H288V232h108v42z"/></svg>